# xmcd
#
# Track frame offsets: 
#        150
#        13502
#        29123
#        47176
#        64887
#        81353
#        94376
#        114299
#        133175
#        148679
#
# Disc length: 2260 seconds
#
# Revision: 0
# Processed by: cddbd v1.5.2PL0 Copyright (c) Steve Scherf et al.
# Submitted via: ExactAudioCopy v0.95b4
#
DISCID=9208d20a
DTITLE=Joy Division - A Christmas Of Joy (Division)
DYEAR=1984
DGENRE=Blues
TTITLE0=Love Will Tear Us Apart (Live In Eindhoven 18.01.80)
TTITLE1=Digital (Live In Eindhoven 18.01.80)
TTITLE2=New Dawn Fades (Live In Eindhoven 18.01.80)
TTITLE3=Colony (Live In Eindhoven 18.01.80)
TTITLE4=These Days (Live In Eindhoven 18.01.80)
TTITLE5=Disorder (Live In Eindhoven 18.01.80)
TTITLE6=Day Of The Lords (Live In Eindhoven 18.01.80)
TTITLE7=Autosuggestion (Live In Eindhoven 18.01.80)
TTITLE8=Shadowplay (Live In Eindhoven 18.01.80)
TTITLE9=Atmosphere (Live In Eindhoven 18.01.80)
EXTD=
EXTT0=
EXTT1=
EXTT2=
EXTT3=
EXTT4=
EXTT5=
EXTT6=
EXTT7=
EXTT8=
EXTT9=
PLAYORDER=
